<?xml version="1.0" encoding="UTF-8" standalone="no"?>
<svg
   xmlns:dc="http://purl.org/dc/elements/1.1/"
   xmlns:cc="http://creativecommons.org/ns#"
   xmlns:rdf="http://www.w3.org/1999/02/22-rdf-syntax-ns#"
   xmlns:svg="http://www.w3.org/2000/svg"
   xmlns="http://www.w3.org/2000/svg"
   xmlns:xlink="http://www.w3.org/1999/xlink"
   id="svg2731"
   version="1.1"
   viewBox="0 0 210 297"
   height="297mm"
   width="210mm">
  <defs
     id="defs2725">
    <linearGradient
       id="linearGradient3938">
      <stop
         id="stop3940"
         offset="0"
         style="stop-color:#333333;stop-opacity:1;" />
      <stop
         id="stop3942"
         offset="1"
         style="stop-color:#333333;stop-opacity:0;" />
    </linearGradient>
    <linearGradient
       id="linearGradient3960">
      <stop
         id="stop3962"
         offset="0"
         style="stop-color:#595959;stop-opacity:1;" />
      <stop
         id="stop3964"
         offset="1"
         style="stop-color:#595959;stop-opacity:0;" />
    </linearGradient>
    <linearGradient
       y2="298.35092"
       x2="52.5"
       y1="309.11484"
       x1="52.5"
       gradientTransform="matrix(0,-4.1784523,-4.2277407,0,1392.0717,240.52788)"
       gradientUnits="userSpaceOnUse"
       id="linearGradient9506"
       xlink:href="#linearGradient3938" />
    <radialGradient
       r="12"
       fy="342.40048"
       fx="40.306187"
       cy="342.40048"
       cx="40.306187"
       gradientTransform="matrix(-0.17774948,-6.2151755,-9.1687909,0.25614211,3300.0201,233.80145)"
       gradientUnits="userSpaceOnUse"
       id="radialGradient9508"
       xlink:href="#linearGradient3960" />
    <linearGradient
       id="linearGradient3907">
      <stop
         id="stop3909"
         offset="0"
         style="stop-color:#757575;stop-opacity:1;" />
      <stop
         id="stop3911"
         offset="1"
         style="stop-color:#494949;stop-opacity:0;" />
    </linearGradient>
    <linearGradient
       id="linearGradient3943">
      <stop
         id="stop3945"
         offset="0"
         style="stop-color:#3b3b3b;stop-opacity:1;" />
      <stop
         id="stop3947"
         offset="1"
         style="stop-color:#3b3b3b;stop-opacity:0;" />
    </linearGradient>
  </defs>
  <metadata
     id="metadata2728">
    <rdf:RDF>
      <cc:Work
         rdf:about="">
        <dc:format>image/svg+xml</dc:format>
        <dc:type
           rdf:resource="http://purl.org/dc/dcmitype/StillImage" />
        <dc:title></dc:title>
      </cc:Work>
    </rdf:RDF>
  </metadata>
  <g
     id="layer1">
    <path
       style="opacity:0.2;fill:#000000;fill-opacity:1;stroke:none;stroke-width:4.20302391"
       d="m 75.713117,2.3560798 c -39.693578,0 -71.871588,31.8028672 -71.871588,71.0336772 0,39.230833 32.17801,71.033693 71.871588,71.033693 39.693623,0 71.871593,-31.80286 71.871593,-71.033693 0,-39.23081 -32.17797,-71.0336772 -71.871593,-71.0336772 z"
       id="path5300" />
    <ellipse
       ry="59.188366"
       rx="58.498329"
       cy="-75.713112"
       cx="-73.389748"
       style="opacity:0.44299999;fill:#000000;fill-opacity:1;stroke:none;stroke-width:4.3228898"
       id="path5302"
       transform="matrix(0,-1,-1,0,0,0)" />
    <path
       style="fill:#494949;fill-opacity:1;stroke:none;stroke-width:4.20302391"
       d="m 75.713117,19.069879 c -30.353952,0 -54.960627,24.319851 -54.960627,54.319878 0,30.000043 24.606675,54.319893 54.960627,54.319893 30.353913,0 54.960633,-24.31985 54.960633,-54.319893 0,-30.000027 -24.60672,-54.319878 -54.960633,-54.319878 z"
       id="path5304" />
    <path
       id="path5306"
       d="m 75.713117,19.069879 c -30.353952,0 -54.960627,24.319851 -54.960627,54.319878 0,30.000043 24.606675,54.319893 54.960627,54.319893 30.353913,0 54.960633,-24.31985 54.960633,-54.319893 0,-30.000027 -24.60672,-54.319878 -54.960633,-54.319878 z"
       style="fill:url(#linearGradient9506);fill-opacity:1;stroke:none;stroke-width:4.20302391" />
    <path
       id="path5308"
       d="m 75.713117,23.248332 c -28.01901,0 -50.732884,22.449069 -50.732884,50.141425 0,27.692363 22.713874,50.141433 50.732884,50.141433 28.019013,0 50.732893,-22.44907 50.732893,-50.141433 0,-27.692356 -22.71388,-50.141425 -50.732893,-50.141425 z"
       style="fill:#2e2e2e;fill-opacity:1;stroke:none;stroke-width:4.20302391" />
    <path
       style="opacity:0.6625;fill:url(#radialGradient9508);fill-opacity:1;stroke:none;stroke-width:4.20302391"
       d="m 75.713117,23.248332 c -28.01901,0 -50.732884,22.449069 -50.732884,50.141425 0,27.692363 22.713874,50.141433 50.732884,50.141433 28.019013,0 50.732893,-22.44907 50.732893,-50.141433 0,-27.692356 -22.71388,-50.141425 -50.732893,-50.141425 z"
       id="path5310" />
    <path
       style="opacity:0.37999998;fill:#000000;fill-opacity:1;stroke:none;stroke-width:4.20302391"
       d="M 79.94086,48.319065 46.118935,81.746685 58.802154,94.282043 79.94086,73.389779 101.07956,94.282043 113.76279,81.746685 Z"
       id="path5312" />
    <path
       id="path5314"
       d="M 75.713117,48.319065 41.891192,81.746685 54.574416,94.282043 75.713117,73.389779 96.851822,94.282043 109.53504,81.746685 Z"
       style="fill:#79ff00;fill-opacity:1;stroke:none;stroke-width:4.20302391" />
    <path
       style="fill:#57b700;fill-opacity:1;stroke:none;stroke-width:4.20302391"
       d="M 75.713117,48.319065 41.891192,81.746685 54.574416,94.282043 75.713117,73.389779 Z"
       id="path5316" />
  </g>
</svg>
